<svg width="24" height="24" viewBox="0 0 24 24" fill="none" xmlns="http://www.w3.org/2000/svg">
<g clip-path="url(#clip0_3430_1363)">
<path d="M18.726 13.5C17.6876 13.5 16.6726 13.1921 15.8093 12.6152C14.9459 12.0383 14.273 11.2184 13.8756 10.2591C13.4783 9.29978 13.3743 8.24417 13.5769 7.22577C13.7794 6.20737 14.2795 5.27191 15.0137 4.53769C15.7479 3.80346 16.6834 3.30345 17.7018 3.10088C18.7202 2.8983 19.7758 3.00227 20.7351 3.39963C21.6944 3.79699 22.5143 4.4699 23.0912 5.33325C23.6681 6.19661 23.976 7.21165 23.976 8.25L24 9C24 11.7848 22.8938 14.4555 20.9246 16.4246C18.9555 18.3938 16.2848 19.5 13.5 19.5V16.5C14.4853 16.5026 15.4614 16.3099 16.3719 15.933C17.2823 15.5561 18.1089 15.0024 18.804 14.304C19.0742 14.0344 19.3234 13.7445 19.5495 13.437C19.281 13.479 19.0065 13.5015 18.7275 13.5015L18.726 13.5ZM5.226 13.5C4.18765 13.5 3.17262 13.1921 2.30926 12.6152C1.4459 12.0383 0.772993 11.2184 0.375633 10.2591C-0.0217285 9.29978 -0.125696 8.24417 0.0768776 7.22577C0.279449 6.20737 0.779465 5.27191 1.51369 4.53769C2.24792 3.80346 3.18337 3.30345 4.20177 3.10088C5.22018 2.8983 6.27578 3.00227 7.23509 3.39963C8.1944 3.79699 9.01434 4.4699 9.59122 5.33325C10.1681 6.19661 10.476 7.21165 10.476 8.25L10.5 9C10.5 11.7848 9.39375 14.4555 7.42462 16.4246C5.45549 18.3938 2.78477 19.5 0 19.5V16.5C0.985348 16.5026 1.96144 16.3099 2.87185 15.933C3.78226 15.5561 4.60891 15.0024 5.304 14.304C5.57416 14.0344 5.82338 13.7445 6.0495 13.437C5.781 13.479 5.5065 13.5 5.226 13.5Z" fill="white"/>
</g>
<defs>
<clipPath id="clip0_3430_1363">
<rect width="24" height="24" fill="white" transform="matrix(-1 0 0 -1 24 24)"/>
</clipPath>
</defs>
</svg>
